<svg width="117" height="115" viewBox="0 0 117 115" fill="none" xmlns="http://www.w3.org/2000/svg">
<g clip-path="url(#clip0_12_391)">
<path d="M0 100.172C0 108.362 6.71531 115 14.9987 115H101.323C109.607 115 116.322 108.361 116.322 100.172V14.8287C116.322 6.6381 109.607 0 101.323 0H14.9992C6.7144 0 0 6.639 0 14.8283V100.171V100.172Z" fill="#563D7C"/>
<path d="M48.2365 50.8686V34.5831H62.7363C64.1176 34.5831 65.4489 34.6968 66.7312 34.9245C68.0134 35.1518 69.148 35.5579 70.1345 36.1432C71.1205 36.7286 71.9098 37.5412 72.5018 38.5812C73.0934 39.6215 73.3897 40.9544 73.3897 42.5792C73.3897 45.505 72.5018 47.6181 70.7261 48.9181C68.9508 50.2186 66.6821 50.8686 63.9199 50.8686H48.2365V50.8686ZM32.7498 22.6855V92.3145H66.8793C70.0359 92.3145 73.1103 91.9245 76.1024 91.1442C79.0945 90.3639 81.7576 89.1614 84.0922 87.5361C86.4264 85.9108 88.2843 83.8139 89.6652 81.2461C91.0465 78.678 91.7367 75.6386 91.7367 72.1279C91.7367 67.7718 90.668 64.0501 88.5311 60.9621C86.3937 57.8738 83.1548 55.7121 78.8146 54.4768C81.9712 52.9818 84.3553 51.0636 85.9665 48.7232C87.5773 46.3827 88.3829 43.4574 88.3829 39.9463C88.3829 36.6958 87.8404 33.9654 86.7553 31.7548C85.6703 29.5447 84.1413 27.7729 82.1684 26.4401C80.1959 25.1073 77.8286 24.1482 75.0664 23.5633C72.3046 22.978 69.2466 22.6855 65.8929 22.6855H32.7498V22.6855ZM48.2365 80.4169V61.3031H65.1036C68.4574 61.3031 71.1537 62.0668 73.1925 63.595C75.2309 65.1228 76.2505 67.6744 76.2505 71.2501C76.2505 73.0708 75.9379 74.5658 75.3131 75.736C74.6883 76.9063 73.85 77.833 72.7976 78.5154C71.7457 79.1982 70.5289 79.6856 69.148 79.9785C67.7667 80.2704 66.3204 80.4169 64.8078 80.4169H48.2365V80.4169Z" fill="white"/>
</g>
<defs>
<clipPath id="clip0_12_391">
<rect width="116.322" height="115" fill="white"/>
</clipPath>
</defs>
</svg>
