<svg width="120" height="120" viewBox="0 0 120 120" fill="none" xmlns="http://www.w3.org/2000/svg">
<g clip-path="url(#clip0_31_149)">
<path d="M106.875 0H13.125C5.87626 0 0 5.87626 0 13.125V106.875C0 114.124 5.87626 120 13.125 120H106.875C114.124 120 120 114.124 120 106.875V13.125C120 5.87626 114.124 0 106.875 0Z" fill="#092E20"/>
<path d="M87.3642 44.1554V75.1988C87.3642 85.8957 86.5814 91.0257 84.2339 95.4605C82.0594 99.7224 79.1897 102.418 73.2769 105.375L60.8409 99.4613C66.7547 96.6788 69.6244 94.2441 71.4502 90.5035C73.3636 86.678 73.973 82.2427 73.973 70.5905V44.1554H87.3642ZM66.06 23.4741V85.4612C59.1905 86.7652 54.1467 87.2869 48.6684 87.2869C32.3198 87.2869 23.798 79.8962 23.798 65.7212C23.798 52.0683 32.842 43.1991 46.8417 43.1991C49.0158 43.1991 50.6681 43.3726 52.6683 43.8943V23.4751L66.06 23.4741ZM48.1467 53.9813C41.3639 53.9813 37.4503 58.1555 37.4503 65.4596C37.4503 72.5912 41.19 76.5038 48.06 76.5038C49.5375 76.5038 50.7553 76.4171 52.6683 76.1569V54.6765C51.1031 54.1552 49.7991 53.9813 48.1467 53.9813ZM87.3642 23.5454V37.2854H73.973V23.5458L87.3642 23.5454Z" fill="#FFFFFD"/>
</g>
<defs>
<clipPath id="clip0_31_149">
<rect width="120" height="120" fill="white"/>
</clipPath>
</defs>
</svg>
