<svg width="120" height="120" viewBox="0 0 120 120" fill="none" xmlns="http://www.w3.org/2000/svg">
<g clip-path="url(#clip0_31_142)">
<path d="M91.875 0H28.125C12.592 0 0 12.592 0 28.125V91.875C0 107.408 12.592 120 28.125 120H91.875C107.408 120 120 107.408 120 91.875V28.125C120 12.592 107.408 0 91.875 0Z" fill="#F4F2ED"/>
<path d="M106.875 85.7517C105.51 86.2685 104.004 86.2675 102.64 85.7488C101.276 85.2301 100.149 84.2298 99.473 82.9368C95.2247 76.5773 90.5334 70.5046 86.0245 64.3017L84.0694 61.6954C78.7003 68.8889 73.3312 75.7954 68.4314 82.9631C67.7932 84.1988 66.7275 85.1604 65.4329 85.6687C64.1383 86.177 62.703 86.1973 61.3945 85.7259L81.5414 58.6982L62.8017 34.2764C64.1507 33.7892 65.6264 33.7825 66.9797 34.2573C68.3331 34.7322 69.4811 35.6594 70.23 36.8826C74.5823 43.2426 79.4044 49.3153 84.1997 55.7531C89.0217 49.3673 93.7912 43.2684 98.2481 36.9609C98.8899 35.7452 99.9562 34.8079 101.244 34.3273C102.532 33.8467 103.952 33.8565 105.233 34.3546L97.9612 43.9982C94.7034 48.2985 91.4977 52.6251 88.1095 56.8214C87.8363 57.0657 87.6178 57.365 87.4682 57.6996C87.3185 58.0342 87.2412 58.3966 87.2412 58.7632C87.2412 59.1297 87.3185 59.4921 87.4682 59.8267C87.6178 60.1613 87.8363 60.4606 88.1095 60.7049C94.3387 68.9671 100.515 77.2551 106.875 85.7517ZM13.125 58.3593C13.6725 55.7531 14.0109 52.912 14.767 50.2537C19.2759 34.2248 37.6505 27.5521 50.2913 37.4826C57.6933 43.2951 59.5439 51.531 59.1792 60.8095H17.4778C16.8 77.3859 28.763 87.3942 44.062 82.2857C46.5438 81.3979 48.7654 79.906 50.5263 77.9448C52.2873 75.9836 53.5321 73.6148 54.1486 71.0521C54.9567 68.4459 56.2598 68.0029 58.7358 68.7585C58.3281 71.9315 57.2063 74.9708 55.4548 77.6478C53.7033 80.3248 51.3676 82.5699 48.6234 84.2142C44.0895 86.6938 38.8876 87.6761 33.7617 87.0208C28.6357 86.3654 23.8483 84.1059 20.0841 80.5654C16.36 76.3782 14.1082 71.0875 13.6725 65.5007C13.6725 64.6148 13.3336 63.7284 13.1512 62.8945C13.134 61.3828 13.1253 59.8711 13.125 58.3593ZM17.5298 57.2385H55.2436C55.0087 45.2235 47.4244 36.7007 37.312 36.6229C26.0527 36.4664 17.9991 44.8064 17.5036 57.1865L17.5298 57.2385Z" fill="#0F0F0F"/>
</g>
<defs>
<clipPath id="clip0_31_142">
<rect width="120" height="120" fill="white"/>
</clipPath>
</defs>
</svg>
