<svg width="120" height="120" viewBox="0 0 120 120" fill="none" xmlns="http://www.w3.org/2000/svg">
<g clip-path="url(#clip0_32_152)">
<path d="M91.875 0H28.125C12.592 0 0 12.592 0 28.125V91.875C0 107.408 12.592 120 28.125 120H91.875C107.408 120 120 107.408 120 91.875V28.125C120 12.592 107.408 0 91.875 0Z" fill="#023430"/>
<path d="M80.2373 50.4333C75.2981 28.6453 65.0044 22.845 62.3784 18.7448C61.2955 16.9386 60.3363 15.061 59.5073 13.125C59.3686 15.0609 59.1136 16.2797 57.4683 17.7478C54.165 20.693 40.1353 32.1258 38.9545 56.8819C37.8544 79.9641 55.9233 94.1967 58.3101 95.6681C60.1458 96.5714 62.3812 95.6873 63.472 94.8581C72.1819 88.8806 84.0825 72.9441 80.2467 50.4333" fill="#10AA50"/>
<path d="M60.2554 83.377C59.8007 89.0901 59.4749 92.4098 58.3199 95.6746C58.3199 95.6746 59.0779 101.114 59.6104 106.875H61.4943C61.9437 102.818 62.6299 98.7902 63.5493 94.813C61.1104 93.613 60.3492 88.3902 60.2554 83.377Z" fill="#B8C4C2"/>
<path d="M63.5461 94.8163C61.0814 93.6777 60.3684 88.3448 60.2587 83.377C60.868 75.1818 61.0458 66.9603 60.7912 58.7465C60.6618 54.4368 60.8521 18.8287 59.7295 13.6152C60.4976 15.381 61.3825 17.0935 62.3784 18.7415C65.0043 22.8449 75.3014 28.6452 80.2373 50.4332C84.0825 72.9056 72.2465 88.7999 63.5461 94.8163Z" fill="#12924F"/>
</g>
<defs>
<clipPath id="clip0_32_152">
<rect width="120" height="120" fill="white"/>
</clipPath>
</defs>
</svg>
