<svg width="120" height="120" viewBox="0 0 120 120" fill="none" xmlns="http://www.w3.org/2000/svg">
<g clip-path="url(#clip0_32_182)">
<path d="M91.875 0H28.125C12.592 0 0 12.592 0 28.125V91.875C0 107.408 12.592 120 28.125 120H91.875C107.408 120 120 107.408 120 91.875V28.125C120 12.592 107.408 0 91.875 0Z" fill="#F4F2ED"/>
<path d="M56.9302 13.1502C56.7286 13.1685 56.0869 13.2327 55.5094 13.2782C42.1941 14.4787 29.7216 21.6637 21.8217 32.7065C17.4235 38.8466 14.6096 45.8113 13.5469 53.189C13.1714 55.7643 13.1255 56.5251 13.1255 60.0163C13.1255 63.508 13.1714 64.2688 13.5474 66.8437C16.0946 84.448 28.6224 99.2394 45.6127 104.72C48.6553 105.7 51.8625 106.369 55.5099 106.772C56.9306 106.928 63.0703 106.928 64.4911 106.772C70.7869 106.076 76.1203 104.518 81.3806 101.833C82.1869 101.421 82.343 101.31 82.2328 101.219C82.1597 101.164 78.7228 96.554 74.5992 90.9824L67.103 80.856L57.7092 66.9538C52.5408 59.3108 48.2888 53.0605 48.2517 53.0605C48.2152 53.0516 48.1786 59.2283 48.1603 66.7705C48.1327 79.9762 48.1238 80.5077 47.9588 80.819C47.7206 81.268 47.5374 81.4513 47.1521 81.6533C46.8591 81.7996 46.6022 81.8272 45.2185 81.8272H43.6331L43.2113 81.5615C42.9501 81.3978 42.738 81.1667 42.5972 80.8926L42.405 80.4801L42.4238 62.106L42.451 43.7226L42.735 43.3649C42.8817 43.1727 43.1935 42.9252 43.4133 42.8062C43.7888 42.6229 43.9355 42.6046 45.5208 42.6046C47.3906 42.6046 47.7019 42.6777 48.188 43.2093C48.3253 43.356 53.4113 51.0172 59.4966 60.2455C65.6572 69.5863 71.8216 78.9246 77.9897 88.2604L85.4128 99.5052L85.7888 99.2577C89.115 97.0949 92.6344 94.0157 95.4202 90.808C101.349 83.999 105.171 75.6965 106.454 66.8437C106.83 64.2688 106.875 63.508 106.875 60.0163C106.875 56.5251 106.83 55.7643 106.454 53.189C103.906 35.5846 91.3786 20.7937 74.3883 15.3135C71.3916 14.3418 68.2027 13.6729 64.6285 13.2697C63.7486 13.1779 57.691 13.0776 56.9306 13.1507M76.1203 41.5049C76.56 41.7247 76.9177 42.1462 77.0461 42.5858C77.1192 42.8244 77.1375 47.9197 77.1192 59.4022L77.0916 75.8797L74.1867 71.4257L71.2725 66.9721V54.9946C71.2725 47.2508 71.3091 42.8976 71.3639 42.6866C71.5106 42.1738 71.8313 41.7707 72.2714 41.5321C72.6469 41.3399 72.7847 41.3212 74.2233 41.3212C75.5799 41.3212 75.818 41.3399 76.1203 41.5049Z" fill="black"/>
</g>
<defs>
<clipPath id="clip0_32_182">
<rect width="120" height="120" fill="white"/>
</clipPath>
</defs>
</svg>
