<svg width="147" height="90" viewBox="0 0 147 90" fill="none" xmlns="http://www.w3.org/2000/svg">
<g clip-path="url(#clip0_32_159)">
<path d="M72.5475 89.7405C72.0507 89.7405 71.587 89.608 71.1562 89.3762L66.7505 86.7593C66.0878 86.3947 66.4191 86.2623 66.6181 86.1961C67.5123 85.898 67.678 85.8315 68.6055 85.3018C68.705 85.2353 68.8377 85.2685 68.9369 85.3348L72.3159 87.3555C72.4483 87.4217 72.614 87.4217 72.7131 87.3555L85.9308 79.7032C86.0632 79.637 86.1297 79.5042 86.1297 79.3389V64.0675C86.1297 63.9016 86.0632 63.7694 85.9308 63.7029L72.7131 56.0839C72.5807 56.0174 72.415 56.0174 72.3159 56.0839L59.0982 63.7029C58.9658 63.7692 58.8993 63.9348 58.8993 64.0672V79.3386C58.8993 79.4713 58.9658 79.6367 59.0982 79.7032L62.7091 81.7901C64.6636 82.7838 65.8892 81.6244 65.8892 80.465V65.3923C65.8892 65.1937 66.0548 64.9948 66.2867 64.9948H67.9761C68.175 64.9948 68.3736 65.1604 68.3736 65.3923V80.465C68.3736 83.0819 66.9491 84.6059 64.4647 84.6059C63.7028 84.6059 63.1066 84.6059 61.417 83.7775L57.9388 81.7901C57.0775 81.2934 56.5475 80.3656 56.5475 79.3718V64.1005C56.5475 63.1068 57.0775 62.179 57.9388 61.6822L71.1562 54.0299C71.9845 53.5662 73.111 53.5662 73.939 54.0299L87.1564 61.6822C88.0177 62.179 88.548 63.1068 88.548 64.1005V79.3718C88.548 80.3656 88.0177 81.2934 87.1564 81.7901L73.939 89.4424C73.5082 89.6413 73.0112 89.7405 72.5475 89.7405ZM76.6224 79.2394C70.8254 79.2394 69.6328 76.5893 69.6328 74.3367C69.6328 74.1378 69.7984 73.9392 70.0303 73.9392H71.7529C71.9516 73.9392 72.1172 74.0716 72.1172 74.2705C72.3824 76.0261 73.1442 76.8874 76.6556 76.8874C79.4382 76.8874 80.6311 76.2579 80.6311 74.7672C80.6311 73.9059 80.2995 73.2768 75.96 72.846C72.3491 72.4814 70.0965 71.6866 70.0965 68.8046C70.0965 66.1212 72.3494 64.531 76.1257 64.531C80.3657 64.531 82.4529 65.9888 82.718 69.1686C82.718 69.2683 82.6848 69.3675 82.6186 69.467C82.5521 69.5332 82.4529 69.5994 82.3534 69.5994H80.6308C80.4652 69.5994 80.2995 69.467 80.2665 69.3013C79.869 67.4795 78.842 66.883 76.1257 66.883C73.078 66.883 72.7134 67.9433 72.7134 68.7381C72.7134 69.6988 73.1442 69.9969 77.2518 70.5269C81.3265 71.0571 83.248 71.819 83.248 74.6677C83.2147 77.583 80.8297 79.2394 76.6224 79.2394Z" fill="#539E43"/>
<path d="M31.5367 30.0131C31.5367 29.4169 31.2053 28.8534 30.6754 28.5553L16.6296 20.4725C16.3975 20.3398 16.1326 20.2736 15.8678 20.2403H15.7351C15.4703 20.2403 15.2051 20.3398 14.9732 20.4725L0.927514 28.5553C0.397259 28.8534 0.0662079 29.4166 0.0662079 30.0131L0.0994563 51.7441C0.0994563 52.0421 0.265125 52.3402 0.529966 52.4729C0.795093 52.6386 1.12614 52.6386 1.35831 52.4729L9.70624 47.7026C10.2362 47.4046 10.5675 46.8413 10.5675 46.2452V36.0752C10.5675 35.479 10.8986 34.9158 11.4289 34.6177L14.9732 32.5637C15.2384 32.3981 15.5365 32.3316 15.8346 32.3316C16.1326 32.3316 16.4307 32.3981 16.6629 32.5637L20.2073 34.6177C20.7375 34.9158 21.0686 35.4787 21.0686 36.0752V46.2452C21.0686 46.8413 21.3999 47.4046 21.9299 47.7026L30.2778 52.4729C30.4068 52.5541 30.5561 52.5972 30.7085 52.5972C30.8609 52.5972 31.0102 52.5541 31.1391 52.4729C31.4043 52.3402 31.5699 52.0421 31.5699 51.7441L31.5367 30.0131ZM99.049 0.0995302C98.7842 -0.0331768 98.4528 -0.0331768 98.2207 0.0995302C97.9558 0.265199 97.7902 0.53004 97.7902 0.828129V22.3608C97.7902 22.5594 97.691 22.758 97.4921 22.8907C97.2934 22.9899 97.0945 22.9899 96.8959 22.8907L93.3845 20.87C93.127 20.7235 92.8359 20.6464 92.5396 20.6464C92.2434 20.6464 91.9522 20.7235 91.6948 20.87L77.6491 28.9861C77.1191 29.2842 76.7878 29.8474 76.7878 30.4436V46.6424C76.7878 47.2386 77.1191 47.8021 77.6491 48.1002L91.6948 56.2162C91.9522 56.3628 92.2434 56.4399 92.5396 56.4399C92.8359 56.4399 93.127 56.3628 93.3845 56.2162L107.43 48.1002C107.96 47.8021 108.291 47.2389 108.291 46.6424V6.26109C108.291 5.63166 107.96 5.06873 107.43 4.77036L99.049 0.0995302ZM97.7572 41.3092C97.7572 41.4749 97.691 41.6073 97.5583 41.6735L92.755 44.4561C92.6879 44.4888 92.6143 44.5058 92.5396 44.5058C92.465 44.5058 92.3913 44.4888 92.3242 44.4561L87.521 41.6735C87.3883 41.6073 87.3221 41.4416 87.3221 41.3092V35.7438C87.3221 35.5782 87.3883 35.4457 87.521 35.3795L92.3242 32.5967C92.3913 32.564 92.465 32.547 92.5396 32.547C92.6143 32.547 92.6879 32.564 92.755 32.5967L97.5583 35.3795C97.691 35.4455 97.7572 35.6114 97.7572 35.7438V41.3092ZM145.791 35.6114C146.321 35.3133 146.619 34.7501 146.619 34.1536V30.2117C146.619 29.6155 146.288 29.0523 145.791 28.7542L131.845 20.6714C131.587 20.5248 131.296 20.4478 131 20.4478C130.703 20.4478 130.412 20.5248 130.155 20.6714L116.109 28.7872C115.579 29.0853 115.248 29.6485 115.248 30.2447V46.4438C115.248 47.04 115.579 47.6032 116.109 47.9013L130.055 55.8517C130.586 56.1497 131.215 56.1497 131.712 55.8517L140.159 51.1482C140.424 51.0154 140.59 50.7174 140.59 50.4193C140.59 50.1212 140.424 49.8231 140.159 49.6904L126.047 41.5743C125.782 41.4087 125.616 41.1438 125.616 40.8457V35.7774C125.616 35.4793 125.782 35.1812 126.047 35.0485L130.453 32.5308C130.582 32.4496 130.731 32.4065 130.884 32.4065C131.036 32.4065 131.185 32.4496 131.314 32.5308L135.72 35.0485C135.985 35.2141 136.151 35.479 136.151 35.7774V39.7526C136.151 40.0506 136.316 40.3487 136.582 40.4811C136.711 40.5623 136.86 40.6054 137.012 40.6054C137.165 40.6054 137.314 40.5623 137.443 40.4811L145.791 35.6114Z" fill="#333333"/>
<path d="M130.784 34.8493C130.834 34.8168 130.891 34.7996 130.95 34.7996C131.009 34.7996 131.067 34.8168 131.116 34.8493L133.799 36.4062C133.898 36.4727 133.964 36.5719 133.964 36.7043V39.8185C133.964 39.9509 133.899 40.0503 133.799 40.1166L131.116 41.6735C131.067 41.7059 131.009 41.7232 130.95 41.7232C130.891 41.7232 130.834 41.7059 130.784 41.6735L128.101 40.1166C128.002 40.0503 127.936 39.9509 127.936 39.8185V36.7046C127.936 36.5719 128.002 36.4724 128.101 36.4065L130.784 34.8493Z" fill="#539E43"/>
<path d="M55.0235 20.7377C54.7661 20.5912 54.475 20.5142 54.1789 20.5142C53.8827 20.5142 53.5916 20.5912 53.3342 20.7377L39.3879 28.787C38.8576 29.0851 38.5596 29.6483 38.5596 30.2445V46.3774C38.5596 46.9736 38.8909 47.5368 39.3879 47.8349L53.3342 55.8847C53.5916 56.0313 53.8827 56.1083 54.1789 56.1083C54.475 56.1083 54.7661 56.0313 55.0235 55.8847L68.9701 47.8349C69.5001 47.5368 69.7984 46.9736 69.7984 46.3774V30.2448C69.7984 29.6486 69.4668 29.0854 68.9701 28.7873L55.0235 20.7377Z" fill="url(#paint0_linear_32_159)"/>
<mask id="mask0_32_159" style="mask-type:luminance" maskUnits="userSpaceOnUse" x="38" y="20" width="32" height="37">
<path d="M55.0235 20.7377C54.7661 20.5912 54.475 20.5142 54.1789 20.5142C53.8827 20.5142 53.5916 20.5912 53.3342 20.7377L39.3879 28.787C38.8576 29.0851 38.5596 29.6483 38.5596 30.2445V46.3774C38.5596 46.9736 38.8909 47.5368 39.3879 47.8349L53.3342 55.8847C53.5916 56.0313 53.8827 56.1083 54.1789 56.1083C54.475 56.1083 54.7661 56.0313 55.0235 55.8847L68.9701 47.8349C69.5001 47.5368 69.7984 46.9736 69.7984 46.3774V30.2448C69.7984 29.6486 69.4668 29.0854 68.9701 28.7873L55.0235 20.7377Z" fill="white"/>
</mask>
<g mask="url(#mask0_32_159)">
<path d="M69.0031 28.7875L54.9906 20.7379C54.8529 20.6684 54.7086 20.6129 54.5598 20.5723L38.8577 47.4714C38.9877 47.6302 39.1448 47.7648 39.3217 47.8689L53.3342 55.9188C53.7317 56.1506 54.1955 56.2169 54.626 56.0841L69.3677 29.1191C69.2682 28.9867 69.1355 28.8867 69.0031 28.7875Z" fill="url(#paint1_linear_32_159)"/>
</g>
<mask id="mask1_32_159" style="mask-type:luminance" maskUnits="userSpaceOnUse" x="38" y="20" width="32" height="37">
<path d="M55.0235 20.7377C54.7661 20.5912 54.475 20.5142 54.1789 20.5142C53.8827 20.5142 53.5916 20.5912 53.3342 20.7377L39.3879 28.787C38.8576 29.0851 38.5596 29.6483 38.5596 30.2445V46.3774C38.5596 46.9736 38.8909 47.5368 39.3879 47.8349L53.3342 55.8847C53.5916 56.0313 53.8827 56.1083 54.1789 56.1083C54.475 56.1083 54.7661 56.0313 55.0235 55.8847L68.9701 47.8349C69.5001 47.5368 69.7984 46.9736 69.7984 46.3774V30.2448C69.7984 29.6486 69.4668 29.0854 68.9701 28.7873L55.0235 20.7377Z" fill="white"/>
</mask>
<g mask="url(#mask1_32_159)">
<path fill-rule="evenodd" clip-rule="evenodd" d="M69.0363 47.8353C69.4339 47.6034 69.732 47.2059 69.8647 46.7754L54.4933 20.5389C54.0957 20.4727 53.6649 20.5057 53.3009 20.7376L39.3876 28.7544L54.3938 56.117C54.6121 56.0813 54.824 56.0144 55.0233 55.9184L69.0363 47.8353Z" fill="url(#paint2_linear_32_159)"/>
<path fill-rule="evenodd" clip-rule="evenodd" d="M69.0363 47.8354L55.0568 55.8852C54.8594 55.9858 54.6467 56.053 54.4274 56.0838L54.6925 56.5808L70.1957 47.6038V47.4049L69.7982 46.7422C69.732 47.2059 69.4339 47.6035 69.0363 47.8354Z" fill="url(#paint3_linear_32_159)"/>
<path fill-rule="evenodd" clip-rule="evenodd" d="M69.0363 47.8354L55.0568 55.8852C54.8594 55.9858 54.6467 56.053 54.4274 56.0838L54.6925 56.5808L70.1957 47.6038V47.4049L69.7982 46.7422C69.732 47.2059 69.4339 47.6035 69.0363 47.8354Z" fill="url(#paint4_linear_32_159)"/>
</g>
</g>
<defs>
<linearGradient id="paint0_linear_32_159" x1="2168.68" y1="642.949" x2="640.03" y2="3044.91" gradientUnits="userSpaceOnUse">
<stop stop-color="#41873F"/>
<stop offset="0.3288" stop-color="#418B3D"/>
<stop offset="0.6352" stop-color="#419637"/>
<stop offset="0.9319" stop-color="#3FA92D"/>
<stop offset="1" stop-color="#3FAE2A"/>
</linearGradient>
<linearGradient id="paint1_linear_32_159" x1="1359.24" y1="1983.46" x2="5187.66" y2="-96.5361" gradientUnits="userSpaceOnUse">
<stop offset="0.1376" stop-color="#41873F"/>
<stop offset="0.4032" stop-color="#54A044"/>
<stop offset="0.7136" stop-color="#66B848"/>
<stop offset="0.9081" stop-color="#6CC04A"/>
</linearGradient>
<linearGradient id="paint2_linear_32_159" x1="-94.3761" y1="1800.81" x2="3132.78" y2="1800.81" gradientUnits="userSpaceOnUse">
<stop offset="0.09192" stop-color="#6CC04A"/>
<stop offset="0.2864" stop-color="#66B848"/>
<stop offset="0.5968" stop-color="#54A044"/>
<stop offset="0.8624" stop-color="#41873F"/>
</linearGradient>
<linearGradient id="paint3_linear_32_159" x1="-1583.29" y1="541.381" x2="1643.83" y2="541.381" gradientUnits="userSpaceOnUse">
<stop offset="0.09192" stop-color="#6CC04A"/>
<stop offset="0.2864" stop-color="#66B848"/>
<stop offset="0.5968" stop-color="#54A044"/>
<stop offset="0.8624" stop-color="#41873F"/>
</linearGradient>
<linearGradient id="paint4_linear_32_159" x1="2113.98" y1="-2029.89" x2="1296.42" y2="2254.07" gradientUnits="userSpaceOnUse">
<stop stop-color="#41873F"/>
<stop offset="0.3288" stop-color="#418B3D"/>
<stop offset="0.6352" stop-color="#419637"/>
<stop offset="0.9319" stop-color="#3FA92D"/>
<stop offset="1" stop-color="#3FAE2A"/>
</linearGradient>
<clipPath id="clip0_32_159">
<rect width="146.752" height="90" fill="white"/>
</clipPath>
</defs>
</svg>
