<svg width="121" height="120" viewBox="0 0 121 120" fill="none" xmlns="http://www.w3.org/2000/svg">
<g clip-path="url(#clip0_32_186)">
<path d="M59.7252 0.0339355C29.216 0.0339355 31.1209 13.2645 31.1209 13.2645L31.1548 26.9718H60.2692V31.0871H19.5911C19.5911 31.0871 0.0682373 28.873 0.0682373 59.6565C0.0682373 90.441 17.1082 89.3492 17.1082 89.3492H27.2776V75.0641C27.2776 75.0641 26.7294 58.0241 44.0457 58.0241H72.9219C72.9219 58.0241 89.1454 58.2862 89.1454 42.3445V15.9859C89.1454 15.9859 91.6094 0.0339355 59.7252 0.0339355ZM43.6715 9.25182C44.3595 9.2512 45.0409 9.38625 45.6766 9.64925C46.3124 9.91225 46.89 10.298 47.3765 10.7845C47.863 11.271 48.2488 11.8486 48.5117 12.4844C48.7747 13.1201 48.9098 13.8015 48.9092 14.4895C48.9098 15.1775 48.7747 15.8588 48.5117 16.4946C48.2488 17.1303 47.863 17.7079 47.3765 18.1944C46.89 18.6809 46.3124 19.0667 45.6766 19.3297C45.0409 19.5927 44.3595 19.7277 43.6715 19.7271C42.9835 19.7277 42.3022 19.5927 41.6664 19.3297C41.0307 19.0667 40.4531 18.6809 39.9666 18.1944C39.4801 17.7079 39.0943 17.1303 38.8313 16.4946C38.5683 15.8588 38.4333 15.1775 38.4339 14.4895C38.4333 13.8015 38.5683 13.1201 38.8313 12.4844C39.0943 11.8486 39.4801 11.271 39.9666 10.7845C40.4531 10.298 41.0307 9.91225 41.6664 9.64925C42.3022 9.38625 42.9835 9.2512 43.6715 9.25182Z" fill="url(#paint0_linear_32_186)"/>
<path d="M60.5916 119.589C91.1007 119.589 89.1958 106.358 89.1958 106.358L89.1619 92.6512H60.0471V88.5359H100.725C100.725 88.5359 120.248 90.7501 120.248 59.9656C120.248 29.1816 103.208 30.2733 103.208 30.2733H93.0386V44.558C93.0386 44.558 93.5868 61.598 76.2706 61.598H47.3944C47.3944 61.598 31.1708 61.3359 31.1708 77.2781V103.637C31.1708 103.637 28.7073 119.589 60.5911 119.589M76.6447 110.372C75.9567 110.372 75.2754 110.237 74.6396 109.974C74.0039 109.711 73.4263 109.325 72.9398 108.839C72.4533 108.353 72.0675 107.775 71.8045 107.139C71.5415 106.503 71.4065 105.822 71.4071 105.134C71.4064 104.446 71.5414 103.765 71.8044 103.129C72.0673 102.493 72.4531 101.915 72.9396 101.429C73.4261 100.942 74.0038 100.556 74.6395 100.293C75.2753 100.03 75.9567 99.8953 76.6447 99.8959C77.3327 99.8953 78.0141 100.03 78.6498 100.293C79.2856 100.556 79.8632 100.942 80.3497 101.429C80.8362 101.915 81.2219 102.493 81.4849 103.128C81.7479 103.764 81.883 104.446 81.8824 105.134C81.883 105.822 81.7479 106.503 81.4849 107.139C81.2219 107.774 80.8362 108.352 80.3497 108.839C79.8632 109.325 79.2856 109.711 78.6498 109.974C78.0141 110.237 77.3327 110.372 76.6447 110.372Z" fill="url(#paint1_linear_32_186)"/>
</g>
<defs>
<linearGradient id="paint0_linear_32_186" x1="1154.99" y1="1075.36" x2="7110.74" y2="6971.69" gradientUnits="userSpaceOnUse">
<stop stop-color="#387EB8"/>
<stop offset="1" stop-color="#366994"/>
</linearGradient>
<linearGradient id="paint1_linear_32_186" x1="1735.84" y1="1868.39" x2="8131.62" y2="7914.53" gradientUnits="userSpaceOnUse">
<stop stop-color="#FFE052"/>
<stop offset="1" stop-color="#FFC331"/>
</linearGradient>
<clipPath id="clip0_32_186">
<rect width="120.471" height="120" fill="white"/>
</clipPath>
</defs>
</svg>
